inDegrees=no
num_controls=7
num_derivatives=13
num_iterations=115
num_multipliers=7
num_parameters=0
num_slacks=7
num_states=26
objective=0.485250
objective_accelerations=0.004267
objective_balance=0.000673
objective_effort=0.007867
objective_height=0.464094
objective_ligament=0.008349
solver_duration=1382.883401
status=Solve_Succeeded
success=true
DataType=double
version=3
OpenSimVersion=4.5
endheader
time	/jointset/ground_pelvis/pelvis_tilt/value	/jointset/ground_pelvis/pelvis_tx/value	/jointset/ground_pelvis/pelvis_ty/value	/jointset/hip_r/hip_flexion_r/value	/jointset/hip_r/hip_adduction_r/value	/jointset/hip_r/hip_rotation_r/value	/jointset/back/lumbar_extension/value	/jointset/patellofemoral_r/patellar_flexion_r/value	/jointset/knee_r/knee_flexion_r/value	/jointset/knee_r/knee_adduction_r/value	/jointset/knee_r/knee_rotation_r/value	/jointset/ankle_r/ankle_angle_r/value	/jointset/subtalar_r/subtalar_angle_r/value	/jointset/ground_pelvis/pelvis_tilt/speed	/jointset/ground_pelvis/pelvis_tx/speed	/jointset/ground_pelvis/pelvis_ty/speed	/jointset/hip_r/hip_flexion_r/speed	/jointset/hip_r/hip_adduction_r/speed	/jointset/hip_r/hip_rotation_r/speed	/jointset/back/lumbar_extension/speed	/jointset/patellofemoral_r/patellar_flexion_r/speed	/jointset/knee_r/knee_flexion_r/speed	/jointset/knee_r/knee_adduction_r/speed	/jointset/knee_r/knee_rotation_r/speed	/jointset/ankle_r/ankle_angle_r/speed	/jointset/subtalar_r/subtalar_angle_r/speed	/forceset/tau_hip_flexion_r	/forceset/tau_hip_adduction_r	/forceset/tau_hip_rotation_r	/forceset/tau_knee_flexion_r	/forceset/tau_ankle_angle_r	/forceset/tau_subtalar_angle_r	/forceset/tau_lumbar_extension	lambda_cid13_p0	lambda_cid14_p0	lambda_cid14_p1	lambda_cid14_p2	lambda_cid14_p3	lambda_cid14_p4	lambda_cid14_p5	/jointset/ground_pelvis/pelvis_tilt/accel	/jointset/ground_pelvis/pelvis_tx/accel	/jointset/ground_pelvis/pelvis_ty/accel	/jointset/hip_r/hip_flexion_r/accel	/jointset/hip_r/hip_adduction_r/accel	/jointset/hip_r/hip_rotation_r/accel	/jointset/back/lumbar_extension/accel	/jointset/patellofemoral_r/patellar_flexion_r/accel	/jointset/knee_r/knee_flexion_r/accel	/jointset/knee_r/knee_adduction_r/accel	/jointset/knee_r/knee_rotation_r/accel	/jointset/ankle_r/ankle_angle_r/accel	/jointset/subtalar_r/subtalar_angle_r/accel	gamma_cid13_p0	gamma_cid14_p0	gamma_cid14_p1	gamma_cid14_p2	gamma_cid14_p3	gamma_cid14_p4	gamma_cid14_p5
0.5	0.04666318226340815	0.1306666084410081	0.9333173848331507	0.186721259949869	-0.08090942227960092	-0.02203137350046766	-0.4184212290782766	0.3106462038483688	0.3106462038485147	-0.1618807454068122	-0.1507726512288803	0.1466399724306223	0.273009929538265	0.1185197029600265	0.01888458840236228	-0.009242853585884466	-0.03699946325407567	-0.02388868062140696	-0.05590643610805127	-0.3327493560091386	0.2133965405872669	0.2133965405872784	0.01499270599476574	0.05735468542126902	0.1526568329809133	0.04445210429409277	-0.01482901017650466	0.04277899184050948	0.03289008729093174	-0.1376861366201004	-0.01117536879637988	-0.02332475559732847	0.1014304109618366	-28.70948851842758	-52.88772032103267	-23.11434564169795	8.360864726496192	4.462953839872696	-663.1891113283802	39.54479089521286	0.04707712848795164	-0.01066889307240168	0.004498908696534149	-0.1281121193599398	0.003532340982046483	0.03431159510289339	0.2768629567154477	-0.1562578245973801	-0.1562578245973809	-0.01943447577415828	-0.03700934335607092	-0.09049109513253889	-0.02833368602080995	-8.351805034720655e-10	-1.24782668485039e-09	-9.569334679649063e-09	9.44643399236965e-10	9.331366890381716e-10	2.979868076859534e-09	-8.281175472377425e-09
0.51	0.04785051877899116	0.1308549141531018	0.9332251873342817	0.1863449835566047	-0.0811480941580435	-0.02258856821359188	-0.4217343539202814	0.3127721570114382	0.3127721570113873	-0.1617318041007424	-0.1502011213884878	0.148161864412043	0.2734530040806006	0.1189340866203685	0.018776372098165	-0.009194549922032422	-0.03825784269749898	-0.02384211843055928	-0.05552694314127928	-0.3298303515648593	0.2117623544602747	0.2117623544602371	0.01479373082309027	0.05694439077306761	0.1517029598592763	0.04415790109399582	-0.01571451203426433	0.0430012399115024	0.03262111619516549	-0.137224900775568	-0.0131183784928286	-0.0234658662057822	0.1025248742366922	-28.71404376430582	-53.53731073586266	-23.18378660705467	8.251335523452294	4.680677725597782	-663.3907271396838	39.45694276200282	0.03659164425429726	-0.01092511463750643	0.005311167754173395	-0.1250052299109943	0.005754152957939317	0.04060294822474304	0.306208312546965	-0.1717594767970217	-0.1717594768044119	-0.02040387935347696	-0.04407315338910937	-0.1006257096988208	-0.03070048540236061	-8.20579004185702e-10	-1.067535135050871e-09	-9.327183633918882e-09	2.888629566851891e-10	8.38399123153581e-10	3.326803969264911e-09	-7.82937741290608e-09
0.52	0.04904159366306494	0.1310421322790444	0.9331335358865562	0.1859560624942911	-0.08138619321561266	-0.02314180103689598	-0.4250169308929908	0.3148808162192319	0.3148808162189816	-0.1615849075146878	-0.1496339012201403	0.1496736596044429	0.2738929892212556	0.1192673766585966	0.01866707117215865	-0.009133643357173251	-0.0395283970640238	-0.02377411644683988	-0.05511405814409405	-0.3266397821500581	0.2099377495314068	0.2099377495313201	0.01458376199184539	0.05649275101139172	0.1506374751768563	0.04383422395796872	-0.01660001389200708	0.04322348798249515	0.03235214509941957	-0.1367636649310205	-0.0150613881892729	-0.02360697681423445	0.1036193375115589	-28.71804266531148	-54.18847111677952	-23.25363196904313	8.142018751188566	4.901226787557244	-663.6137794918021	39.37097237480336	0.03085840406531531	-0.01088581743436489	0.007019488897964872	-0.1305471039801953	0.007820299556419587	0.04099000118552108	0.3311759508199375	-0.1943415849725166	-0.1943415849725163	-0.02163320768809397	-0.04527836605091827	-0.1128134072893154	-0.03422847320688107	-8.127042898569793e-10	-9.446100547880758e-10	-9.064785069716855e-09	-3.830682272150825e-10	7.885868385884304e-10	3.657487435365148e-09	-7.323861395110929e-09
0.53	0.05023559150846355	0.1312282507648005	0.9330425548122149	0.1855543997839387	-0.08162351490911238	-0.02369071216906149	-0.4282662594822523	0.3169703168642288	0.3169703168640583	-0.1614401389248659	-0.1490714204222207	0.1511742576123565	0.2743295831740767	0.1195188813080204	0.01855638487752223	-0.009060460717467866	-0.04080547277905248	-0.02368695505559036	-0.05466159816344857	-0.3231827501381021	0.2079324124921909	0.2079324124921191	0.01436918550671286	0.05599584941392997	0.1494642648890064	0.043479484828811	-0.01743403442689746	0.04342410679220215	0.03209857442284505	-0.1363547862280464	-0.01693126364127781	-0.02372417157676983	0.1046695000529973	-28.72149175691364	-54.81254454234862	-23.3138183271098	8.0374105257315	5.107165119059458	-663.8126817915837	39.29918977293451	0.02029953916827408	-0.01119604864476995	0.00778503680246363	-0.1264872171361842	0.009653478002463314	0.04835957176828585	0.359444661217658	-0.2081246480614208	-0.2081246480591996	-0.02148664773883031	-0.05303002618471178	-0.1222538322517483	-0.03686037266260826	-7.938516674466157e-10	-7.862311836927189e-10	-8.740281652190904e-09	-1.049823117802329e-09	7.04662371269237e-10	3.91324951233658e-09	-6.748555955149962e-09
